<svg xmlns="http://www.w3.org/2000/svg" viewBox="0 0 900 1150" width="900" height="1150" role="img" aria-label="Stylist Portrait">
  <defs>
    <linearGradient id="g2" x1="0" y1="0" x2="1" y2="1">
      <stop offset="0" stop-color="#F6EFE6"/><stop offset=".55" stop-color="#E9DCC9"/><stop offset="1" stop-color="#CDB48A"/>
    </linearGradient>
    <radialGradient id="g2v" cx=".5" cy=".42" r=".78">
      <stop offset=".55" stop-color="#fff" stop-opacity="0"/><stop offset="1" stop-color="#6B4F4C" stop-opacity=".16"/>
    </radialGradient>
  </defs>
  <rect width="900" height="1150" fill="url(#g2)"/>
  <g><path d="M97.7 -92.0 C496.8 427.1, 621.0 893.7, 660.9 1242.0" stroke="#8E6E72" stroke-opacity="0.10" stroke-width="0.8" fill="none" stroke-linecap="round"/><path d="M110.6 -92.0 C383.4 468.2, 778.5 857.6, 712.3 1242.0" stroke="#8E6E72" stroke-opacity="0.15" stroke-width="1.5" fill="none" stroke-linecap="round"/><path d="M123.4 -92.0 C270.0 509.3, 621.0 821.4, 763.7 1242.0" stroke="#8E6E72" stroke-opacity="0.20" stroke-width="2.2" fill="none" stroke-linecap="round"/><path d="M136.3 -92.0 C534.6 550.4, 778.5 785.3, 815.1 1242.0" stroke="#8E6E72" stroke-opacity="0.10" stroke-width="0.8" fill="none" stroke-linecap="round"/><path d="M149.1 -92.0 C421.2 591.4, 621.0 749.1, 866.6 1242.0" stroke="#8E6E72" stroke-opacity="0.15" stroke-width="1.5" fill="none" stroke-linecap="round"/><path d="M162.0 -92.0 C307.8 632.5, 778.5 713.0, 918.0 1242.0" stroke="#8E6E72" stroke-opacity="0.20" stroke-width="2.2" fill="none" stroke-linecap="round"/><path d="M174.9 -92.0 C572.4 673.6, 621.0 676.9, 969.4 1242.0" stroke="#8E6E72" stroke-opacity="0.10" stroke-width="0.8" fill="none" stroke-linecap="round"/></g>
  <rect width="900" height="1150" fill="url(#g2v)"/>
  <rect x="41" y="41" width="818" height="1068" fill="none" stroke="#FFFFFF" stroke-opacity=".45" stroke-width="1"/>
  <g font-family="'Cormorant Garamond', Georgia, 'Times New Roman', serif" text-anchor="middle" fill="#4A3634">
    <text x="450" y="580.6" font-size="56" font-style="italic" fill-opacity=".78">Stylist Portrait</text>
  </g>
  <g font-family="'Jost', 'Helvetica Neue', Arial, sans-serif" text-anchor="middle" fill="#4A3634">
    <text x="450" y="639.4" font-size="29" letter-spacing="6.4" fill-opacity=".5">REPLACE ME</text>
  </g>
</svg>